<svg width="431" height="182" viewBox="0 0 431 182" fill="none" xmlns="http://www.w3.org/2000/svg">
<path fill-rule="evenodd" clip-rule="evenodd" d="M429.679 1C409.003 103.922 318.1 181.443 209.09 181.443C115.183 181.443 34.7126 123.914 1 42.1765C44.8452 34.2157 106.175 27.106 160.09 35.4434C222.489 45.0927 238.394 42.3274 256.802 39.1268C267.01 37.352 277.988 35.4434 298.09 35.4434C340.172 35.4434 401.377 12.5801 429.679 1Z" fill="#FF8437"/>
<path d="M429.679 1L430.169 1.09848L430.353 0.184018L429.489 0.53724L429.679 1ZM1 42.1765L0.910677 41.6845L0.301828 41.7951L0.537772 42.3671L1 42.1765ZM160.09 35.4434L160.013 35.9375L160.013 35.9375L160.09 35.4434ZM256.802 39.1268L256.888 39.6194L256.802 39.1268ZM429.188 0.901524C408.559 103.594 317.857 180.943 209.09 180.943V181.943C318.342 181.943 409.447 104.249 430.169 1.09848L429.188 0.901524ZM209.09 180.943C115.392 180.943 35.1003 123.543 1.46223 41.9858L0.537772 42.3671C34.3249 124.285 114.973 181.943 209.09 181.943V180.943ZM160.166 34.9492C106.168 26.599 44.7727 33.7207 0.910677 41.6845L1.08932 42.6684C44.9177 34.7107 106.182 27.613 160.013 35.9375L160.166 34.9492ZM256.717 38.6342C247.521 40.233 238.978 41.7182 224.947 41.6038C210.904 41.4893 191.355 39.7723 160.166 34.9492L160.013 35.9375C191.223 40.7638 210.826 42.4887 224.938 42.6038C239.062 42.7189 247.675 41.2211 256.888 39.6194L256.717 38.6342ZM298.09 34.9434C277.947 34.9434 266.938 36.8571 256.717 38.6342L256.888 39.6194C267.083 37.8469 278.029 35.9434 298.09 35.9434V34.9434ZM429.489 0.53724C415.347 6.32379 392.987 14.928 368.91 22.0849C344.823 29.2446 319.057 34.9434 298.09 34.9434V35.9434C319.205 35.9434 345.083 30.2105 369.195 23.0435C393.315 15.8737 415.709 7.25629 429.868 1.46276L429.489 0.53724Z" fill="#E45959"/>
<path d="M89.6524 81.4434V76.3574L91.5039 76.0645V68.8223L89.6524 68.5293V63.4434H98.9922L102.766 70.3574L106.504 63.4434H115.855V68.5293L114.004 68.8223V76.0645L115.855 76.3574V81.4434H106.504V72.666L102.766 79.1348L98.9922 72.666V81.4434H89.6524ZM117.004 81.4434V76.0059L118.363 75.7363L121.609 64.9434H130.703L133.973 75.7363L135.32 76.0059V81.4434H129.051L128.465 78.666H123.859L123.273 81.4434H117.004ZM124.574 74.9629H127.75L126.156 68.4824L124.574 74.9629ZM136.785 81.4434V76.7676L138.191 76.498V69.8301L136.785 69.5605V64.9434H146.652V69.5605L145.246 69.8301V76.498L146.652 76.7676V81.4434H136.785ZM148.246 81.4434V76.7676L149.652 76.498V69.8301L148.246 69.5605V64.9434H156.707L162.344 73.8379V69.8535L160.938 69.5605V64.9434H167.98V69.5605L166.574 69.8301V76.498L167.98 76.7676V81.4434H159.52L153.883 72.7832V76.498L155.301 76.7559V81.4434H148.246ZM186.813 81.6543C183.711 81.6543 181.285 80.8613 179.535 79.2754C177.793 77.6816 176.922 75.334 176.922 72.2324C176.922 69.2168 177.766 66.9551 179.453 65.4473C181.141 63.9316 183.48 63.1738 186.473 63.1738C188.082 63.1738 189.512 63.3027 190.762 63.5605C192.02 63.8105 193.176 64.1855 194.23 64.6855V70.041H190.703C190.391 69.5957 190.004 69.2129 189.543 68.8926C189.082 68.5645 188.523 68.4004 187.867 68.4004C187.164 68.4004 186.555 68.5723 186.039 68.916C185.531 69.252 185.137 69.709 184.855 70.2871C184.574 70.8652 184.434 71.5137 184.434 72.2324C184.434 73.498 184.719 74.4668 185.289 75.1387C185.867 75.8027 186.762 76.1348 187.973 76.1348C188.285 76.1348 188.582 76.1191 188.863 76.0879C189.145 76.0488 189.418 76.002 189.684 75.9473V74.5293H187.434V71.3184H194.723V79.873C193.605 80.3418 192.395 80.7559 191.09 81.1152C189.793 81.4746 188.367 81.6543 186.813 81.6543ZM196.34 81.4434V76.7676L197.746 76.498V69.8535L196.34 69.584V64.9434H210.824V70.9434H209.219C208.695 70.5527 208.055 70.2402 207.297 70.0059C206.539 69.7715 205.707 69.6543 204.801 69.6543V72.1973L208.047 71.5059V74.8457L204.801 74.1426V76.7324C205.715 76.7324 206.551 76.6191 207.309 76.3926C208.074 76.166 208.711 75.8496 209.219 75.4434H210.824V81.4434H196.34ZM212.488 81.4434V76.7676L213.895 76.498V69.8535L212.488 69.584V64.9434H226.973V70.9434H225.367C224.844 70.5527 224.203 70.2402 223.445 70.0059C222.688 69.7715 221.855 69.6543 220.949 69.6543V72.1973L224.195 71.5059V74.8457L220.949 74.1426V76.7324C221.863 76.7324 222.699 76.6191 223.457 76.3926C224.223 76.166 224.859 75.8496 225.367 75.4434H226.973V81.4434H212.488ZM231.602 81.4434V76.7676L233.008 76.498V69.3027C232.625 69.3027 232.238 69.3652 231.848 69.4902C231.465 69.6152 231.145 69.7988 230.887 70.041C230.629 70.2832 230.5 70.584 230.5 70.9434H228.543V64.9434H244.527V70.9434H242.57C242.57 70.584 242.438 70.2832 242.172 70.041C241.914 69.7988 241.594 69.6152 241.211 69.4902C240.828 69.3652 240.445 69.3027 240.063 69.3027V76.498L241.469 76.7676V81.4434H231.602ZM244.855 81.4434V76.0059L246.215 75.7363L249.461 64.9434H258.555L261.824 75.7363L263.172 76.0059V81.4434H256.902L256.316 78.666H251.711L251.125 81.4434H244.855ZM252.426 74.9629H255.602L254.008 68.4824L252.426 74.9629ZM278.418 81.6543C277.027 81.6543 275.777 81.5449 274.668 81.3262C273.559 81.1074 272.574 80.7598 271.715 80.2832V74.8457H275.242C275.469 75.2676 275.766 75.6465 276.133 75.9824C276.5 76.3184 276.953 76.4863 277.492 76.4863C277.891 76.4863 278.215 76.3613 278.465 76.1113C278.723 75.8613 278.91 75.541 279.027 75.1504C279.145 74.7598 279.203 74.3574 279.203 73.9434V68.8223L277.352 68.5293V63.4434H288.555V68.5293L286.703 68.8223V73.9434C286.703 76.584 285.98 78.5293 284.535 79.7793C283.098 81.0293 281.059 81.6543 278.418 81.6543ZM288.332 81.4434V76.0059L289.691 75.7363L292.938 64.9434H302.031L305.301 75.7363L306.648 76.0059V81.4434H300.379L299.793 78.666H295.188L294.602 81.4434H288.332ZM295.902 74.9629H299.078L297.484 68.4824L295.902 74.9629ZM308.113 81.4434V76.7676L309.52 76.498V69.8301L308.113 69.5605V64.9434H317.98V69.5605L316.574 69.8301V76.498L317.98 76.7676V81.4434H308.113ZM319.574 81.4434V76.7676L320.98 76.498V69.8301L319.574 69.5605V64.9434H328.035L333.672 73.8379V69.8535L332.266 69.5605V64.9434H339.309V69.5605L337.902 69.8301V76.498L339.309 76.7676V81.4434H330.848L325.211 72.7832V76.498L326.629 76.7559V81.4434H319.574ZM97.1992 120.443V115.768L98.6055 115.498V108.83L97.1992 108.561V103.943H105.66V110.529L108.777 103.943H116.371V106.92C115.551 107.615 114.801 108.396 114.121 109.264C113.441 110.123 112.816 111.018 112.246 111.947C112.918 113.01 113.613 114.072 114.332 115.135C115.059 116.189 115.844 117.162 116.688 118.053V120.443H108.777L105.66 113.529V120.443H97.1992ZM118.105 120.443V115.768L119.512 115.498V108.854L118.105 108.584V103.943H132.59V109.943H130.984C130.461 109.553 129.82 109.24 129.063 109.006C128.305 108.771 127.473 108.654 126.566 108.654V111.197L129.813 110.506V113.846L126.566 113.143V115.732C127.48 115.732 128.316 115.619 129.074 115.393C129.84 115.166 130.477 114.85 130.984 114.443H132.59V120.443H118.105ZM149.043 120.654C147.59 120.654 146.246 120.561 145.012 120.373C143.785 120.178 142.66 119.814 141.637 119.283V114.654H145.164C145.492 115.107 145.895 115.494 146.371 115.814C146.855 116.135 147.438 116.295 148.117 116.295C148.664 116.295 149.051 116.15 149.277 115.861C149.504 115.564 149.617 115.131 149.617 114.561C148.563 114.467 147.547 114.303 146.57 114.068C145.602 113.834 144.734 113.49 143.969 113.037C143.203 112.576 142.598 111.967 142.152 111.209C141.707 110.443 141.484 109.486 141.484 108.338C141.484 106.799 141.824 105.588 142.504 104.705C143.191 103.822 144.133 103.193 145.328 102.818C146.531 102.443 147.902 102.256 149.441 102.256C150.965 102.256 152.313 102.373 153.484 102.607C154.656 102.842 155.738 103.189 156.73 103.65V108.221H153.203C152.891 107.775 152.504 107.393 152.043 107.072C151.582 106.744 151.023 106.58 150.367 106.58C149.82 106.58 149.426 106.748 149.184 107.084C148.941 107.412 148.82 107.865 148.82 108.443C150.016 108.482 151.117 108.607 152.125 108.818C153.141 109.029 154.02 109.373 154.762 109.85C155.512 110.318 156.09 110.955 156.496 111.76C156.91 112.557 157.117 113.568 157.117 114.795C157.117 115.912 156.91 116.85 156.496 117.607C156.082 118.357 155.508 118.955 154.773 119.4C154.039 119.846 153.184 120.166 152.207 120.361C151.23 120.557 150.176 120.654 149.043 120.654ZM158.184 120.443V115.006L159.543 114.736L162.789 103.943H171.883L175.152 114.736L176.5 115.006V120.443H170.23L169.645 117.666H165.039L164.453 120.443H158.184ZM165.754 113.963H168.93L167.336 107.482L165.754 113.963ZM177.777 120.443V115.006L179.137 114.736L182.383 103.943H191.477L194.746 114.736L196.094 115.006V120.443H189.824L189.238 117.666H184.633L184.047 120.443H177.777ZM185.348 113.963H188.523L186.93 107.482L185.348 113.963ZM199.516 120.443V115.768L200.922 115.498V108.303C200.539 108.303 200.152 108.365 199.762 108.49C199.379 108.615 199.059 108.799 198.801 109.041C198.543 109.283 198.414 109.584 198.414 109.943H196.457V103.943H212.441V109.943H210.484C210.484 109.584 210.352 109.283 210.086 109.041C209.828 108.799 209.508 108.615 209.125 108.49C208.742 108.365 208.359 108.303 207.977 108.303V115.498L209.383 115.768V120.443H199.516ZM213.965 120.443V115.768L215.371 115.498V108.854L213.965 108.584V103.943H223.832V108.584L222.426 108.854V110.787H228.063V108.854L226.656 108.584V103.885H236.523V108.584L235.117 108.854V115.498L236.523 115.768V120.443H226.656V115.768L228.063 115.498V113.541H222.426V115.498L223.832 115.768V120.443H213.965ZM245.664 120.443V115.357L247.492 115.064V107.846L245.664 107.553V102.443H256.727V107.553L254.992 107.846V110.061H260.992V107.846L259.258 107.553V102.443H270.32V107.553L268.492 107.846V115.064L270.32 115.357V120.443H259.258V115.357L260.992 115.064V112.709H254.992V115.064L256.727 115.357V120.443H245.664ZM281.266 120.654C279.266 120.654 277.527 120.35 276.051 119.74C274.574 119.131 273.43 118.186 272.617 116.904C271.813 115.623 271.41 113.979 271.41 111.971C271.41 110.002 271.824 108.396 272.652 107.154C273.48 105.904 274.633 104.982 276.109 104.389C277.594 103.795 279.313 103.498 281.266 103.498C283.219 103.498 284.938 103.795 286.422 104.389C287.906 104.982 289.063 105.904 289.891 107.154C290.727 108.396 291.145 110.002 291.145 111.971C291.145 113.979 290.742 115.623 289.938 116.904C289.133 118.186 287.992 119.131 286.516 119.74C285.039 120.35 283.289 120.654 281.266 120.654ZM281.266 115.545C282.359 115.545 283.105 115.217 283.504 114.561C283.902 113.904 284.102 113.041 284.102 111.971C284.102 110.9 283.898 110.053 283.492 109.428C283.094 108.803 282.352 108.49 281.266 108.49C280.203 108.49 279.469 108.795 279.063 109.404C278.664 110.014 278.465 110.85 278.465 111.912C278.465 112.998 278.652 113.877 279.027 114.549C279.41 115.213 280.156 115.545 281.266 115.545ZM301.773 120.654C299.773 120.654 298.035 120.35 296.559 119.74C295.082 119.131 293.938 118.186 293.125 116.904C292.32 115.623 291.918 113.979 291.918 111.971C291.918 110.002 292.332 108.396 293.16 107.154C293.988 105.904 295.141 104.982 296.617 104.389C298.102 103.795 299.82 103.498 301.773 103.498C303.727 103.498 305.445 103.795 306.93 104.389C308.414 104.982 309.57 105.904 310.398 107.154C311.234 108.396 311.652 110.002 311.652 111.971C311.652 113.979 311.25 115.623 310.445 116.904C309.641 118.186 308.5 119.131 307.023 119.74C305.547 120.35 303.797 120.654 301.773 120.654ZM301.773 115.545C302.867 115.545 303.613 115.217 304.012 114.561C304.41 113.904 304.609 113.041 304.609 111.971C304.609 110.9 304.406 110.053 304 109.428C303.602 108.803 302.859 108.49 301.773 108.49C300.711 108.49 299.977 108.795 299.57 109.404C299.172 110.014 298.973 110.85 298.973 111.912C298.973 112.998 299.16 113.877 299.535 114.549C299.918 115.213 300.664 115.545 301.773 115.545ZM312.637 120.443V115.768L314.043 115.498V108.83L312.637 108.561V103.943H321.098L326.734 112.838V108.854L325.328 108.561V103.943H332.371V108.561L330.965 108.83V115.498L332.371 115.768V120.443H323.91L318.273 111.783V115.498L319.691 115.756V120.443H312.637Z" fill="white"/>
</svg>
